<svg width="1200" height="675" viewBox="0 0 1200 675" fill="none" xmlns="http://www.w3.org/2000/svg">
  <rect width="1200" height="675" rx="16" fill="#020617"/>
  <rect width="1200" height="675" rx="16" fill="url(#newsGrad)" fill-opacity="0.5"/>
  <defs>
    <linearGradient id="newsGrad" x1="0" y1="0" x2="1200" y2="675">
      <stop offset="0%" stop-color="#38BDF8" stop-opacity="0.06"/>
      <stop offset="50%" stop-color="#EF4444" stop-opacity="0.03"/>
      <stop offset="100%" stop-color="#22C55E" stop-opacity="0.04"/>
    </linearGradient>
  </defs>
  <!-- Title badge -->
  <rect x="155" y="175" width="200" height="24" rx="12" fill="#38BDF8" opacity="0.1"/>
  <text x="255" y="191" fill="#38BDF8" font-size="11" font-family="monospace" text-anchor="middle" font-weight="600">FAKE NEWS DETECTION</text>
  <!-- Newspaper article left -->
  <rect x="160" y="220" width="380" height="330" rx="10" fill="#0F172A" stroke="#1E293B" stroke-width="1"/>
  <text x="190" y="255" fill="#F1F5F9" font-size="16" font-family="sans-serif" font-weight="700">Breaking News</text>
  <line x1="190" y1="265" x2="510" y2="265" stroke="#1E293B" stroke-width="1"/>
  <rect x="190" y="280" width="140" height="90" rx="6" fill="#1E293B"/>
  <rect x="190" y="280" width="140" height="90" rx="6" fill="url(#imgGrad1)" opacity="0.5"/>
  <line x1="350" y1="290" x2="510" y2="290" stroke="#334155" stroke-width="4" stroke-linecap="round"/>
  <line x1="350" y1="305" x2="490" y2="305" stroke="#334155" stroke-width="4" stroke-linecap="round"/>
  <line x1="350" y1="320" x2="510" y2="320" stroke="#334155" stroke-width="4" stroke-linecap="round"/>
  <line x1="350" y1="335" x2="470" y2="335" stroke="#334155" stroke-width="4" stroke-linecap="round"/>
  <line x1="350" y1="350" x2="510" y2="350" stroke="#334155" stroke-width="4" stroke-linecap="round"/>
  <line x1="350" y1="365" x2="480" y2="365" stroke="#334155" stroke-width="4" stroke-linecap="round"/>
  <line x1="190" y1="390" x2="510" y2="390" stroke="#334155" stroke-width="4" stroke-linecap="round"/>
  <line x1="190" y1="405" x2="510" y2="405" stroke="#334155" stroke-width="4" stroke-linecap="round"/>
  <line x1="190" y1="420" x2="490" y2="420" stroke="#334155" stroke-width="4" stroke-linecap="round"/>
  <line x1="190" y1="435" x2="510" y2="435" stroke="#334155" stroke-width="4" stroke-linecap="round"/>
  <line x1="190" y1="450" x2="500" y2="450" stroke="#334155" stroke-width="4" stroke-linecap="round"/>
  <line x1="190" y1="465" x2="460" y2="465" stroke="#334155" stroke-width="4" stroke-linecap="round"/>
  <line x1="190" y1="480" x2="510" y2="480" stroke="#334155" stroke-width="4" stroke-linecap="round"/>
  <line x1="190" y1="495" x2="480" y2="495" stroke="#334155" stroke-width="4" stroke-linecap="round"/>
  <line x1="190" y1="510" x2="510" y2="510" stroke="#334155" stroke-width="4" stroke-linecap="round"/>
  <line x1="190" y1="525" x2="490" y2="525" stroke="#334155" stroke-width="4" stroke-linecap="round"/>
  <!-- FAKE stamp -->
  <rect x="250" y="370" width="120" height="36" rx="4" fill="#EF4444" opacity="0.15" transform="rotate(-15 310 388)"/>
  <text x="310" y="394" fill="#EF4444" font-size="20" font-family="monospace" font-weight="800" transform="rotate(-15 310 388)" text-anchor="middle" letter-spacing="4">FAKE</text>
  <!-- Newspaper article right -->
  <rect x="580" y="220" width="380" height="330" rx="10" fill="#0F172A" stroke="#1E293B" stroke-width="1"/>
  <text x="610" y="255" fill="#F1F5F9" font-size="16" font-family="sans-serif" font-weight="700">World News</text>
  <line x1="610" y1="265" x2="930" y2="265" stroke="#1E293B" stroke-width="1"/>
  <rect x="610" y="280" width="140" height="90" rx="6" fill="#1E293B"/>
  <rect x="610" y="280" width="140" height="90" rx="6" fill="url(#imgGrad2)" opacity="0.5"/>
  <line x1="770" y1="290" x2="930" y2="290" stroke="#334155" stroke-width="4" stroke-linecap="round"/>
  <line x1="770" y1="305" x2="910" y2="305" stroke="#334155" stroke-width="4" stroke-linecap="round"/>
  <line x1="770" y1="320" x2="930" y2="320" stroke="#334155" stroke-width="4" stroke-linecap="round"/>
  <line x1="770" y1="335" x2="890" y2="335" stroke="#334155" stroke-width="4" stroke-linecap="round"/>
  <line x1="770" y1="350" x2="930" y2="350" stroke="#334155" stroke-width="4" stroke-linecap="round"/>
  <line x1="770" y1="365" x2="900" y2="365" stroke="#334155" stroke-width="4" stroke-linecap="round"/>
  <line x1="610" y1="390" x2="930" y2="390" stroke="#334155" stroke-width="4" stroke-linecap="round"/>
  <line x1="610" y1="405" x2="930" y2="405" stroke="#334155" stroke-width="4" stroke-linecap="round"/>
  <line x1="610" y1="420" x2="910" y2="420" stroke="#334155" stroke-width="4" stroke-linecap="round"/>
  <line x1="610" y1="435" x2="930" y2="435" stroke="#334155" stroke-width="4" stroke-linecap="round"/>
  <line x1="610" y1="450" x2="920" y2="450" stroke="#334155" stroke-width="4" stroke-linecap="round"/>
  <line x1="610" y1="465" x2="880" y2="465" stroke="#334155" stroke-width="4" stroke-linecap="round"/>
  <line x1="610" y1="480" x2="930" y2="480" stroke="#334155" stroke-width="4" stroke-linecap="round"/>
  <line x1="610" y1="495" x2="900" y2="495" stroke="#334155" stroke-width="4" stroke-linecap="round"/>
  <line x1="610" y1="510" x2="930" y2="510" stroke="#334155" stroke-width="4" stroke-linecap="round"/>
  <line x1="610" y1="525" x2="910" y2="525" stroke="#334155" stroke-width="4" stroke-linecap="round"/>
  <!-- REAL stamp -->
  <rect x="680" y="370" width="120" height="36" rx="4" fill="#22C55E" opacity="0.15" transform="rotate(-15 740 388)"/>
  <text x="740" y="394" fill="#22C55E" font-size="20" font-family="monospace" font-weight="800" transform="rotate(-15 740 388)" text-anchor="middle" letter-spacing="4">REAL</text>
  <!-- NLP scanning beam -->
  <rect x="160" y="555" width="800" height="3" rx="1.5" fill="#38BDF8" opacity="0.3"/>
  <circle cx="960" cy="556" r="5" fill="#38BDF8" opacity="0.6"/>
  <circle cx="960" cy="556" r="10" fill="#38BDF8" opacity="0.2"/>
  <!-- Classification label -->
  <text x="160" y="580" fill="#94A3B8" font-size="10" font-family="monospace">NLP Classification</text>
  <!-- Result indicators -->
  <rect x="160" y="590" width="80" height="22" rx="11" fill="#EF4444" opacity="0.15"/>
  <text x="200" y="605" fill="#EF4444" font-size="9" font-family="monospace" text-anchor="middle">Misinformation</text>
  <rect x="250" y="590" width="60" height="22" rx="11" fill="#22C55E" opacity="0.15"/>
  <text x="280" y="605" fill="#22C55E" font-size="9" font-family="monospace" text-anchor="middle">Factual</text>
  <rect x="320" y="590" width="80" height="22" rx="11" fill="#EF4444" opacity="0.15"/>
  <text x="360" y="605" fill="#EF4444" font-size="9" font-family="monospace" text-anchor="middle">Clickbait</text>
  <defs>
    <linearGradient id="imgGrad1" x1="0" y1="0" x2="1" y2="1">
      <stop offset="0%" stop-color="#38BDF8" stop-opacity="0.2"/>
      <stop offset="100%" stop-color="#6366F1" stop-opacity="0.1"/>
    </linearGradient>
    <linearGradient id="imgGrad2" x1="0" y1="0" x2="1" y2="1">
      <stop offset="0%" stop-color="#6366F1" stop-opacity="0.2"/>
      <stop offset="100%" stop-color="#38BDF8" stop-opacity="0.1"/>
    </linearGradient>
  </defs>
</svg>
