<svg width="1200" height="675" viewBox="0 0 1200 675" fill="none" xmlns="http://www.w3.org/2000/svg">
  <rect width="1200" height="675" rx="16" fill="#020617"/>
  <rect width="1200" height="675" rx="16" fill="url(#ticketGrad)" fill-opacity="0.5"/>
  <defs>
    <linearGradient id="ticketGrad" x1="0" y1="0" x2="1200" y2="675">
      <stop offset="0%" stop-color="#6366F1" stop-opacity="0.06"/>
      <stop offset="100%" stop-color="#38BDF8" stop-opacity="0.08"/>
    </linearGradient>
  </defs>
  <!-- Title -->
  <rect x="155" y="175" width="260" height="24" rx="12" fill="#6366F1" opacity="0.1"/>
  <text x="285" y="191" fill="#6366F1" font-size="11" font-family="monospace" text-anchor="middle" font-weight="600">SUPPORT TICKET CLASSIFICATION</text>
  <!-- Ticket 1 - Billing -->
  <rect x="160" y="220" width="400" height="90" rx="10" fill="#0F172A" stroke="#1E293B" stroke-width="1"/>
  <rect x="160" y="220" width="4" height="90" rx="2" fill="#38BDF8"/>
  <circle cx="195" cy="250" r="14" fill="#38BDF8" opacity="0.15"/>
  <text x="195" y="255" fill="#38BDF8" font-size="12" font-family="sans-serif" text-anchor="middle">&#128179;</text>
  <text x="225" y="248" fill="#F1F5F9" font-size="13" font-family="sans-serif" font-weight="600">Incorrect charge on invoice</text>
  <text x="225" y="268" fill="#64748B" font-size="11" font-family="sans-serif">John D. • Priority: High</text>
  <rect x="365" y="240" width="55" height="22" rx="11" fill="#38BDF8" opacity="0.12"/>
  <text x="392" y="255" fill="#38BDF8" font-size="9" font-family="monospace" text-anchor="middle" font-weight="600">Billing</text>
  <text x="180" y="298" fill="#475569" font-size="10" font-family="monospace">#TKT-0042 • 2h ago</text>
  <!-- Ticket 2 - Technical -->
  <rect x="160" y="325" width="400" height="90" rx="10" fill="#0F172A" stroke="#1E293B" stroke-width="1"/>
  <rect x="160" y="325" width="4" height="90" rx="2" fill="#6366F1"/>
  <circle cx="195" cy="355" r="14" fill="#6366F1" opacity="0.15"/>
  <text x="195" y="360" fill="#6366F1" font-size="12" font-family="sans-serif" text-anchor="middle">&#128187;</text>
  <text x="225" y="353" fill="#F1F5F9" font-size="13" font-family="sans-serif" font-weight="600">App crashes on login screen</text>
  <text x="225" y="373" fill="#64748B" font-size="11" font-family="sans-serif">Sarah M. • Priority: Urgent</text>
  <rect x="365" y="345" width="70" height="22" rx="11" fill="#EF4444" opacity="0.12"/>
  <text x="400" y="360" fill="#EF4444" font-size="9" font-family="monospace" text-anchor="middle" font-weight="600">Technical</text>
  <text x="180" y="403" fill="#475569" font-size="10" font-family="monospace">#TKT-0043 • 30m ago</text>
  <!-- Ticket 3 - Support -->
  <rect x="160" y="430" width="400" height="90" rx="10" fill="#0F172A" stroke="#1E293B" stroke-width="1"/>
  <rect x="160" y="430" width="4" height="90" rx="2" fill="#22C55E"/>
  <circle cx="195" cy="460" r="14" fill="#22C55E" opacity="0.15"/>
  <text x="195" y="465" fill="#22C55E" font-size="12" font-family="sans-serif" text-anchor="middle">&#128172;</text>
  <text x="225" y="458" fill="#F1F5F9" font-size="13" font-family="sans-serif" font-weight="600">How to reset password?</text>
  <text x="225" y="478" fill="#64748B" font-size="11" font-family="sans-serif">Mike R. • Priority: Low</text>
  <rect x="370" y="450" width="60" height="22" rx="11" fill="#22C55E" opacity="0.12"/>
  <text x="400" y="465" fill="#22C55E" font-size="9" font-family="monospace" text-anchor="middle" font-weight="600">Support</text>
  <text x="180" y="508" fill="#475569" font-size="10" font-family="monospace">#TKT-0044 • 1h ago</text>
  <!-- Right panel - Stats -->
  <rect x="610" y="220" width="380" height="140" rx="10" fill="#0F172A" stroke="#1E293B" stroke-width="1"/>
  <text x="640" y="250" fill="#94A3B8" font-size="11" font-family="sans-serif" font-weight="600">Classification Overview</text>
  <!-- Category stats -->
  <rect x="640" y="270" width="310" height="6" rx="3" fill="#1E293B"/>
  <rect x="640" y="270" width="140" height="6" rx="3" fill="#38BDF8"/>
  <text x="640" y="295" fill="#38BDF8" font-size="10" font-family="monospace">Billing: 42%</text>
  <rect x="640" y="305" width="310" height="6" rx="3" fill="#1E293B"/>
  <rect x="640" y="305" width="95" height="6" rx="3" fill="#EF4444"/>
  <text x="640" y="330" fill="#EF4444" font-size="10" font-family="monospace">Technical: 28%</text>
  <rect x="640" y="340" width="310" height="6" rx="3" fill="#1E293B"/>
  <rect x="640" y="340" width="60" height="6" rx="3" fill="#22C55E"/>
  <text x="640" y="365" fill="#22C55E" font-size="10" font-family="monospace">Support: 18%</text>
  <!-- AI auto-classify indicator -->
  <rect x="610" y="380" width="380" height="70" rx="10" fill="#38BDF8" opacity="0.04" stroke="#38BDF8" stroke-width="1" stroke-opacity="0.1"/>
  <text x="800" y="408" fill="#38BDF8" font-size="12" font-family="sans-serif" text-anchor="middle" font-weight="600">&#9889; AI Auto-Classification Active</text>
  <text x="800" y="430" fill="#64748B" font-size="10" font-family="sans-serif" text-anchor="middle">Automatically categorizing incoming tickets</text>
</svg>
